<?xml version="1.0" standalone="no"?>
<!DOCTYPE svg PUBLIC "-//W3C//DTD SVG 20010904//EN"
 "http://www.w3.org/TR/2001/REC-SVG-20010904/DTD/svg10.dtd">
<svg version="1.0" xmlns="http://www.w3.org/2000/svg"
 width="192.000000pt" height="192.000000pt" viewBox="0 0 192.000000 192.000000"
 preserveAspectRatio="xMidYMid meet">
<metadata>
Created by potrace 1.14, written by Peter Selinger 2001-2017
</metadata>
<g transform="translate(0.000000,192.000000) scale(0.100000,-0.100000)"
fill="#000000" stroke="none">
<path d="M740 1734 c-146 -44 -232 -96 -345 -209 -115 -115 -167 -201 -209
-349 -37 -127 -37 -305 0 -432 41 -145 95 -235 204 -345 105 -107 188 -159
325 -206 75 -26 91 -28 245 -28 154 0 170 2 245 28 134 46 220 100 321 201
101 101 155 187 201 321 26 75 28 91 28 245 0 154 -2 170 -28 245 -46 134
-100 220 -201 321 -99 99 -177 149 -311 198 -73 27 -93 30 -235 33 -143 3
-162 1 -240 -23z m388 -125 c81 -25 86 -33 53 -97 -25 -48 -66 -89 -115 -114
-55 -28 -167 -28 -222 0 -51 26 -108 89 -124 136 -10 31 -15 36 -33 30 -12 -4
-19 -3 -15 1 3 3 46 20 95 35 115 38 250 41 361 9z m191 -293 c18 -22 7 -37
-143 -186 -120 -119 -136 -139 -136 -168 0 -22 -8 -41 -25 -58 l-25 -25 0
-203 c0 -169 -3 -206 -15 -216 -12 -10 -18 -10 -30 0 -12 10 -15 47 -15 216 0
200 0 203 -24 227 -12 13 -25 28 -27 33 -2 6 -64 39 -136 74 -134 64 -151 79
-138 120 12 39 45 33 180 -31 187 -90 175 -93 356 87 80 79 150 144 156 144 6
0 16 -6 22 -14z"/>
</g>
</svg>
